<svg width="22" height="22" viewBox="0 0 22 22" fill="none" xmlns="http://www.w3.org/2000/svg">
<path d="M19.25 5.5C19.25 7.01878 18.0188 8.25 16.5 8.25C14.9812 8.25 13.75 7.01878 13.75 5.5C13.75 3.98122 14.9812 2.75 16.5 2.75C18.0188 2.75 19.25 3.98122 19.25 5.5Z" stroke="white" stroke-width="1.5"/>
<path d="M19.25 16.5C19.25 18.0188 18.0188 19.25 16.5 19.25C14.9812 19.25 13.75 18.0188 13.75 16.5C13.75 14.9812 14.9812 13.75 16.5 13.75C18.0188 13.75 19.25 14.9812 19.25 16.5Z" stroke="white" stroke-width="1.5"/>
<path d="M13.75 7.33301L2.75 17.4163" stroke="white" stroke-width="1.5" stroke-linecap="round" stroke-linejoin="round"/>
<path d="M13.7503 14.667L10.0834 11.0003" stroke="white" stroke-width="1.5" stroke-linecap="round" stroke-linejoin="round"/>
<path d="M2.75 4.58376L7.79167 9.16699" stroke="white" stroke-width="1.5" stroke-linecap="round" stroke-linejoin="round"/>
</svg>
