<svg width="22" height="22" viewBox="0 0 22 22" fill="none" xmlns="http://www.w3.org/2000/svg">
<path fill-rule="evenodd" clip-rule="evenodd" d="M8.21068 13.789C8.56866 14.147 8.56866 14.7274 8.21068 15.0854L3.62735 19.6687C3.26937 20.0267 2.68897 20.0267 2.33099 19.6687C1.973 19.3107 1.973 18.7303 2.33099 18.3723L6.91432 13.789C7.2723 13.431 7.8527 13.431 8.21068 13.789Z" fill="#CED0D3"/>
<path d="M16.2335 2.34067C17.8355 2.91984 19.0801 4.16447 19.6593 5.76642C19.7574 6.03747 19.8732 6.35715 19.9153 6.63818C19.9651 6.97019 19.932 7.28309 19.8073 7.63002C19.5404 8.3729 18.9423 8.70491 18.2831 9.0708L16.9834 9.79557C16.5133 10.0577 16.203 10.2317 15.9819 10.3845C15.7667 10.5333 15.7056 10.6168 15.6801 10.6661C15.6667 10.6921 15.6249 10.8187 15.6359 11.2297C15.6462 11.618 15.6966 12.1446 15.7689 12.8941C15.8855 14.1024 15.685 15.2995 14.9877 16.4146C14.87 16.603 14.722 16.8399 14.5567 17.0161C14.3614 17.2243 14.1364 17.3714 13.8466 17.4888C13.5516 17.6084 13.2831 17.6567 12.9936 17.6438C12.7472 17.6328 12.4643 17.5684 12.2281 17.5147C10.4171 17.1035 8.68849 16.0528 7.31782 14.6821C5.94715 13.3115 4.8964 11.5829 4.48521 9.77185C4.43152 9.53578 4.36718 9.25293 4.35621 9.00657C4.34331 8.71696 4.3918 8.44853 4.51141 8.15351C4.6289 7.86371 4.77609 7.63867 4.98437 7.44338C5.16065 7.2781 5.39765 7.1302 5.586 7.01267C6.68549 6.32577 7.87285 6.11387 9.07207 6.21994C9.83775 6.28766 10.3776 6.33503 10.7745 6.34332C10.9706 6.34741 11.2192 6.36443 11.3486 6.29702C11.3966 6.27201 11.4799 6.21069 11.6293 5.99398C11.7823 5.77203 11.9568 5.46057 12.2194 4.9898L12.9292 3.71688C13.2951 3.0577 13.6271 2.45958 14.37 2.19267C14.7169 2.06803 15.0298 2.03491 15.3618 2.0847C15.6428 2.12685 15.9625 2.24256 16.2335 2.34067Z" fill="#CED0D3"/>
</svg>
