<svg width="22" height="22" viewBox="0 0 22 22" fill="none" xmlns="http://www.w3.org/2000/svg">
<path d="M3.78191 14.0865L9.28439 10.9914C9.82974 10.6846 10.3815 10.542 11 10.542C11.6185 10.542 12.1703 10.6846 12.7156 10.9914L18.2181 14.0865C18.8555 14.4451 19.25 15.1196 19.25 15.8509C19.25 16.969 18.3437 17.8753 17.2256 17.8753L4.77438 17.8753C3.65635 17.8753 2.75 16.969 2.75 15.8509C2.75 15.1196 3.14448 14.4451 3.78191 14.0865Z" stroke="white" stroke-width="1.5" stroke-linecap="round" stroke-linejoin="round"/>
<path d="M9.16663 5.87103C9.16663 4.90673 9.98744 4.125 11 4.125C12.0125 4.125 12.8333 4.90673 12.8333 5.87103C12.8333 6.53082 12.449 7.10514 11.882 7.40207C11.4335 7.63693 11 8.02747 11 8.53373V10.5417" stroke="white" stroke-width="1.5" stroke-linecap="round"/>
</svg>
