<svg width="22" height="22" viewBox="0 0 22 22" fill="none" xmlns="http://www.w3.org/2000/svg">
<path d="M5.5 18.333L5.5 20.1663M16.5 18.333V20.1663" stroke="white" stroke-width="1.5" stroke-linecap="round" stroke-linejoin="round"/>
<path d="M2.75 12.833L2.75 7.33301C2.75 4.74028 2.75 3.44392 3.60284 2.63846C4.45567 1.83301 5.82829 1.83301 8.57353 1.83301L13.4265 1.83301C16.1717 1.83301 17.5443 1.83301 18.3972 2.63846C19.25 3.44392 19.25 4.74028 19.25 7.33301L19.25 12.833C19.25 15.4257 19.25 16.7221 18.3972 17.5276C17.5443 18.333 16.1717 18.333 13.4265 18.333L8.57353 18.333C5.82829 18.333 4.45567 18.333 3.60284 17.5276C2.75 16.7221 2.75 15.4257 2.75 12.833Z" stroke="white" stroke-width="1.5" stroke-linecap="round" stroke-linejoin="round"/>
<path d="M11 18.333L11 1.83301" stroke="white" stroke-width="1.5" stroke-linecap="round" stroke-linejoin="round"/>
<path d="M8.25 9.16634V10.083" stroke="white" stroke-width="1.5" stroke-linecap="round" stroke-linejoin="round"/>
<path d="M13.75 9.16634V10.083" stroke="white" stroke-width="1.5" stroke-linecap="round" stroke-linejoin="round"/>
</svg>
