<svg width="46" height="46" viewBox="0 0 46 46" fill="none" xmlns="http://www.w3.org/2000/svg">
<path d="M31.25 17.958C31.25 19.4768 30.0188 20.708 28.5 20.708C26.9812 20.708 25.75 19.4768 25.75 17.958C25.75 16.4392 26.9812 15.208 28.5 15.208C30.0188 15.208 31.25 16.4392 31.25 17.958Z" stroke="#141516" stroke-width="1.5"/>
<path d="M20.25 23C20.25 24.5188 19.0188 25.75 17.5 25.75C15.9812 25.75 14.75 24.5188 14.75 23C14.75 21.4812 15.9812 20.25 17.5 20.25C19.0188 20.25 20.25 21.4812 20.25 23Z" stroke="#141516" stroke-width="1.5"/>
<path d="M31.25 28.042C31.25 29.5608 30.0188 30.792 28.5 30.792C26.9812 30.792 25.75 29.5608 25.75 28.042C25.75 26.5232 26.9812 25.292 28.5 25.292C30.0188 25.292 31.25 26.5232 31.25 28.042Z" stroke="#141516" stroke-width="1.5"/>
<path d="M20.001 21.854L25.9593 19.1045M20.001 24.1462L25.9593 26.8957" stroke="#343537" stroke-width="1.5"/>
</svg>
