<svg width="46" height="46" viewBox="0 0 46 46" fill="none" xmlns="http://www.w3.org/2000/svg">
<circle cx="18.417" cy="19.333" r="1.375" stroke="#141516" stroke-width="1.5" stroke-linecap="round" stroke-linejoin="round"/>
<path d="M31.2476 22.0833C31.2497 22.5143 31.2497 22.9719 31.2497 23.4583C31.2497 27.5635 31.2497 29.6161 29.9744 30.8914C28.6991 32.1667 26.6465 32.1667 22.5413 32.1667C18.4362 32.1667 16.3836 32.1667 15.1083 30.8914C13.833 29.6161 13.833 27.5635 13.833 23.4583C13.833 19.3532 13.833 17.3006 15.1083 16.0253C16.3836 14.75 18.4362 14.75 22.5413 14.75C23.0278 14.75 23.4854 14.75 23.9163 14.7521" stroke="#141516" stroke-width="1.5" stroke-linecap="round"/>
<path d="M28.9583 13.833L29.1948 14.4719C29.5048 15.3098 29.6598 15.7287 29.9654 16.0343C30.271 16.3399 30.6899 16.4949 31.5277 16.8049L32.1667 17.0413L31.5277 17.2778C30.6899 17.5878 30.271 17.7428 29.9654 18.0484C29.6598 18.354 29.5048 18.7729 29.1948 19.6107L28.9583 20.2497L28.7219 19.6107C28.4119 18.7729 28.2569 18.354 27.9513 18.0484C27.6457 17.7428 27.2268 17.5878 26.3889 17.2778L25.75 17.0413L26.3889 16.8049C27.2268 16.4949 27.6457 16.3399 27.9513 16.0343C28.2569 15.7287 28.4119 15.3098 28.7219 14.4719L28.9583 13.833Z" stroke="#141516" stroke-width="1.5" stroke-linejoin="round"/>
<path d="M16.125 31.708C20.1331 26.9184 24.6262 20.6017 31.2477 24.8718" stroke="#343537" stroke-width="1.5"/>
</svg>
