<svg width="22" height="22" viewBox="0 0 22 22" fill="none" xmlns="http://www.w3.org/2000/svg">
<path d="M8.11934 11.4639C5.83826 9.75848 4.21267 7.88256 3.32506 6.82794C3.0503 6.50148 2.96027 6.26257 2.90613 5.84174C2.72077 4.40074 2.62809 3.68024 3.05062 3.21512C3.47316 2.75 4.22037 2.75 5.7148 2.75H16.2852C17.7796 2.75 18.5268 2.75 18.9494 3.21512C19.3719 3.68024 19.2792 4.40074 19.0939 5.84174C19.0397 6.26258 18.9497 6.50149 18.6749 6.82795C17.7861 7.8839 16.1572 9.76315 13.8715 11.4707C13.6647 11.6252 13.5284 11.877 13.5032 12.1563C13.2767 14.6593 13.0679 16.0303 12.9379 16.7238C12.7282 17.8436 11.1404 18.5172 10.2905 19.1183C9.78455 19.4761 9.17061 19.0501 9.10505 18.4963C8.98006 17.4406 8.74464 15.2958 8.48767 12.1563C8.46458 11.8744 8.32778 11.6197 8.11934 11.4639Z" stroke="#343537" stroke-width="1.5" stroke-linecap="round" stroke-linejoin="round"/>
</svg>
