<svg width="16" height="16" viewBox="0 0 16 16" fill="none" xmlns="http://www.w3.org/2000/svg">
<path d="M9.38215 2.59095C9.87894 2.05271 10.1273 1.78358 10.3913 1.6266C11.0282 1.24782 11.8124 1.23605 12.4599 1.59553C12.7283 1.74452 12.9843 2.00606 13.4964 2.52916C14.0084 3.05225 14.2645 3.3138 14.4103 3.58793C14.7622 4.2494 14.7507 5.05051 14.3799 5.70112C14.2262 5.97076 13.9628 6.2245 13.4359 6.73199L7.16676 12.7702C6.16826 13.7319 5.66901 14.2128 5.04505 14.4565C4.42109 14.7002 3.73514 14.6822 2.36325 14.6464L2.17659 14.6415C1.75894 14.6306 1.55012 14.6251 1.42873 14.4873C1.30734 14.3496 1.32392 14.1369 1.35706 13.7114L1.37506 13.4804C1.46835 12.283 1.51499 11.6843 1.74881 11.1461C1.98263 10.6079 2.38596 10.171 3.19263 9.29698L9.38215 2.59095Z" stroke="#141516" stroke-width="1.5" stroke-linejoin="round"/>
<path d="M8.66699 2.66602L13.3337 7.33268" stroke="#141516" stroke-width="1.5" stroke-linejoin="round"/>
<path d="M9.33301 14.666L14.6663 14.666" stroke="#141516" stroke-width="1.5" stroke-linecap="round" stroke-linejoin="round"/>
</svg>
