<svg width="16" height="16" viewBox="0 0 16 16" fill="none" xmlns="http://www.w3.org/2000/svg">
<path d="M11.5489 1.84001C11.8647 1.86846 12.1195 2.01261 12.3496 2.19353C12.5655 2.36329 12.8044 2.60235 13.0811 2.87907L13.1221 2.91911C13.3988 3.19577 13.6369 3.43469 13.8067 3.65056C13.9876 3.88069 14.1327 4.1354 14.1612 4.45134C14.1692 4.54087 14.1692 4.63134 14.1612 4.72087C14.1326 5.03665 13.9876 5.2916 13.8067 5.52165C13.637 5.73739 13.3986 5.97567 13.1221 6.25212L6.45804 12.9162C5.94568 13.429 5.58968 13.7858 5.12894 13.9767C4.66803 14.1676 4.16367 14.1675 3.43851 14.1672H2.33402C2.05799 14.1672 1.8342 13.9431 1.83402 13.6672V12.5617C1.83367 11.8369 1.83276 11.3332 2.02347 10.8722C2.21437 10.4114 2.57106 10.0546 3.08402 9.54216L8.65042 3.97575L9.74808 2.87907C10.0248 2.60235 10.2636 2.36329 10.4795 2.19353C10.7096 2.01266 10.9645 1.86846 11.2803 1.84001C11.3697 1.83198 11.4595 1.83197 11.5489 1.84001ZM3.85843 10.1818C3.25172 10.7885 3.05265 10.9999 2.9473 11.2541C2.84197 11.5084 2.83402 11.7991 2.83402 12.6574V13.1672H3.34378C4.20178 13.1672 4.49187 13.1582 4.74613 13.0529C5.00035 12.9476 5.2116 12.7486 5.81839 12.1418L10.96 7.00017L9.00003 5.04021L3.85843 10.1818ZM11.3692 2.83513C11.324 2.83926 11.2514 2.85885 11.0977 2.97966C10.9344 3.10804 10.7376 3.30365 10.4346 3.60661L9.70706 4.33317L11.667 6.29314L12.3946 5.5656C12.6972 5.26295 12.8922 5.06665 13.0205 4.90349C13.1417 4.74941 13.161 4.67616 13.1651 4.63103C13.1678 4.60122 13.1677 4.57099 13.1651 4.54118C13.161 4.49606 13.1419 4.42304 13.0205 4.26872C12.8922 4.10555 12.6972 3.90929 12.3946 3.60661C12.0916 3.30365 11.8947 3.10804 11.7315 2.97966C11.5772 2.85839 11.5041 2.83919 11.459 2.83513C11.4293 2.83247 11.3989 2.83245 11.3692 2.83513Z" fill="#343537"/>
</svg>
